<?xml version="1.0" standalone="no"?>
<!DOCTYPE svg PUBLIC "-//W3C//DTD SVG 20010904//EN"
 "http://www.w3.org/TR/2001/REC-SVG-20010904/DTD/svg10.dtd">
<svg version="1.0" xmlns="http://www.w3.org/2000/svg"
 width="500.000000pt" height="500.000000pt" viewBox="0 0 500.000000 500.000000"
 preserveAspectRatio="xMidYMid meet">
<metadata>
Created by potrace 1.14, written by Peter Selinger 2001-2017
</metadata>
<g transform="translate(0.000000,500.000000) scale(0.100000,-0.100000)"
fill="#000000" stroke="none">
<path d="M0 2500 l0 -2500 2500 0 2500 0 0 2500 0 2500 -2500 0 -2500 0 0
-2500z m2130 1379 c29 -13 88 -63 167 -142 l123 -122 -97 -97 -98 -98 -100
100 -100 100 -415 -415 -415 -416 413 -411 413 -412 410 410 c225 225 409 413
409 419 0 6 -56 66 -125 135 l-125 125 97 97 98 98 148 -147 c82 -82 158 -166
169 -188 11 -22 23 -67 26 -102 9 -121 22 -105 -492 -622 -503 -505 -502 -504
-612 -505 -115 0 -121 5 -615 501 -304 304 -454 462 -470 493 -29 58 -31 145
-5 215 16 43 71 103 410 443 447 450 532 529 584 548 56 20 149 17 202 -7z
m-847 -2449 c33 -71 64 -130 67 -130 4 0 31 53 60 118 66 148 69 151 115 129
19 -9 35 -21 35 -26 0 -5 -38 -88 -86 -184 -122 -251 -130 -251 -250 -1 -46
95 -84 177 -84 183 0 5 10 17 22 25 46 33 56 24 121 -114z m698 107 c126 -67
146 -244 39 -341 -35 -32 -92 -56 -130 -56 -100 0 -199 102 -200 206 -1 161
155 263 291 191z m330 13 c18 -10 19 -23 19 -199 0 -205 1 -201 -56 -201 -37
0 -44 33 -44 203 0 167 4 194 29 200 27 8 32 7 52 -3z m422 -19 c21 -13 44
-36 52 -51 21 -40 19 -109 -4 -146 -18 -30 -18 -31 6 -89 l25 -59 -23 -19
c-39 -32 -69 -19 -93 40 -21 52 -22 53 -63 53 -41 0 -43 -1 -43 -29 0 -50 -17
-81 -44 -81 -57 0 -56 -3 -56 201 0 168 2 189 18 199 10 6 53 9 103 7 68 -2
93 -8 122 -26z m287 19 c5 0 39 -39 76 -86 37 -47 70 -82 74 -77 4 4 33 42 65
83 62 81 82 95 120 80 l25 -10 0 -183 c0 -129 -4 -187 -12 -195 -16 -16 -65
-15 -75 1 -4 6 -10 57 -13 111 l-5 99 -40 -54 c-31 -42 -47 -55 -71 -57 -26
-3 -35 4 -74 59 l-45 61 -3 -108 c-3 -115 -7 -124 -55 -124 -20 0 -30 7 -37
26 -11 27 -14 314 -4 351 6 22 28 34 52 27 8 -2 18 -4 22 -4z m814 -3 c12 -9
17 -23 14 -47 l-3 -35 -107 -3 -108 -3 0 -29 0 -29 78 -3 77 -3 3 -35 c5 -47
-16 -60 -95 -60 -61 0 -63 -1 -63 -25 0 -25 0 -25 98 -25 106 0 122 -7 122
-50 0 -46 -14 -50 -162 -50 l-138 0 -10 26 c-11 27 -14 314 -4 351 8 29 17 30
160 32 84 1 125 -3 138 -12z"/>
<path d="M1819 1431 c-41 -42 -41 -107 0 -153 24 -27 36 -33 71 -33 80 0 125
88 85 165 -31 59 -107 69 -156 21z"/>
<path d="M2590 1410 l0 -50 43 0 c50 0 67 13 67 52 0 33 -24 48 -74 48 l-36 0
0 -50z"/>
</g>
</svg>
