<?xml version="1.0" standalone="no"?>
<!DOCTYPE svg PUBLIC "-//W3C//DTD SVG 20010904//EN"
 "http://www.w3.org/TR/2001/REC-SVG-20010904/DTD/svg10.dtd">
<svg version="1.0" xmlns="http://www.w3.org/2000/svg"
 width="500.000000pt" height="500.000000pt" viewBox="0 0 500.000000 500.000000"
 preserveAspectRatio="xMidYMid meet">
<metadata>
Created by potrace 1.14, written by Peter Selinger 2001-2017
</metadata>
<g transform="translate(0.000000,500.000000) scale(0.100000,-0.100000)"
fill="#000000" stroke="none">
<path d="M0 2500 l0 -2500 2500 0 2500 0 0 2500 0 2500 -2500 0 -2500 0 0
-2500z m2303 806 c18 -8 59 -41 92 -75 l60 -61 -48 -47 -47 -47 -49 48 -50 49
-210 -203 c-116 -111 -211 -205 -211 -209 0 -3 93 -100 208 -214 l207 -207
210 210 210 210 -65 65 -65 65 51 51 50 50 81 -84 c143 -149 139 -159 -173
-469 -247 -244 -261 -254 -336 -229 -45 15 -504 474 -514 514 -3 15 -4 45 0
65 5 32 38 69 248 279 263 261 277 271 351 239z m-562 -1413 l40 -88 37 82
c20 46 42 85 48 87 7 3 20 -1 31 -9 17 -13 15 -19 -39 -129 -45 -90 -62 -116
-78 -116 -16 0 -33 26 -78 116 -55 112 -56 116 -38 130 11 8 24 14 28 14 4 0
26 -39 49 -87z m423 73 c49 -20 76 -61 76 -113 0 -85 -44 -133 -121 -133 -138
0 -172 190 -44 246 38 17 49 17 89 0z m230 -12 c8 -20 8 -198 0 -218 -8 -21
-50 -21 -58 0 -8 21 -8 219 1 227 12 13 51 7 57 -9z m267 -13 c31 -32 36 -62
16 -101 -11 -21 -10 -32 2 -63 13 -33 13 -40 0 -48 -25 -16 -39 -10 -56 26
-13 27 -23 35 -44 35 -24 0 -28 -4 -31 -32 -2 -28 -7 -33 -28 -33 -25 0 -25 0
-28 109 -1 61 0 116 2 123 4 9 26 13 71 13 60 0 69 -3 96 -29z m215 -26 l41
-55 39 55 c31 43 45 55 67 55 l28 0 -3 -122 -3 -123 -25 0 c-24 0 -25 3 -30
70 l-5 70 -23 -37 c-31 -50 -59 -50 -92 -1 l-25 37 -5 -70 c-5 -66 -6 -69 -30
-69 l-25 0 -3 123 -3 122 28 0 c22 -1 37 -13 69 -55z m462 28 c-3 -27 -6 -28
-65 -31 -47 -2 -63 -7 -63 -17 0 -11 12 -15 39 -15 41 0 67 -20 57 -45 -4 -10
-19 -15 -51 -15 -38 0 -45 -3 -45 -20 0 -18 7 -20 65 -20 l65 0 0 -30 0 -31
-92 3 -93 3 -3 123 -3 122 96 0 96 0 -3 -27z"/>
<path d="M2095 1908 c-28 -16 -35 -28 -35 -64 0 -37 26 -64 62 -64 58 0 80 81
32 119 -31 24 -32 24 -59 9z"/>
<path d="M2550 1880 c0 -26 3 -30 29 -30 33 0 54 20 45 44 -4 10 -18 16 -40
16 -31 0 -34 -3 -34 -30z"/>
</g>
</svg>
