<?xml version="1.0" standalone="no"?>
<!DOCTYPE svg PUBLIC "-//W3C//DTD SVG 20010904//EN"
 "http://www.w3.org/TR/2001/REC-SVG-20010904/DTD/svg10.dtd">
<svg version="1.0" xmlns="http://www.w3.org/2000/svg"
 width="500.000000pt" height="500.000000pt" viewBox="0 0 500.000000 500.000000"
 preserveAspectRatio="xMidYMid meet">
<metadata>
Created by potrace 1.14, written by Peter Selinger 2001-2017
</metadata>
<g transform="translate(0.000000,500.000000) scale(0.100000,-0.100000)"
fill="#000000" stroke="none">
<path d="M0 2500 l0 -2500 2500 0 2500 0 0 2500 0 2500 -2500 0 -2500 0 0
-2500z m2056 1303 c41 -13 75 -42 199 -164 l150 -148 -110 -111 -110 -110
-110 110 c-61 60 -115 110 -120 110 -6 0 -219 -209 -475 -465 l-465 -465 470
-470 470 -470 467 467 468 468 -145 145 c-80 80 -145 150 -145 157 0 11 208
213 220 213 3 0 85 -80 182 -177 195 -198 210 -223 209 -343 0 -124 4 -119
-564 -688 -573 -574 -562 -565 -690 -565 -132 -1 -113 -17 -694 566 -286 287
-528 536 -536 552 -40 81 -39 202 3 286 15 30 187 209 539 560 473 474 521
518 571 537 67 26 150 28 216 5z m-94 -2758 c20 -13 50 -46 65 -72 36 -62 38
-155 5 -220 -45 -87 -150 -138 -238 -114 -147 39 -211 187 -143 329 54 111
204 148 311 77z m-774 -114 l66 -144 23 49 c13 27 43 93 68 147 37 82 48 97
67 97 29 0 68 -26 68 -46 0 -18 -167 -353 -188 -376 -19 -23 -55 -23 -74 0
-21 23 -188 358 -188 376 0 21 41 47 69 44 20 -3 34 -25 89 -147z m1120 137
c17 -17 17 -399 0 -416 -7 -7 -23 -12 -38 -12 -54 0 -55 4 -58 213 -3 169 -1
197 13 211 19 19 66 21 83 4z m428 -9 c24 -11 52 -35 64 -53 27 -44 27 -127 1
-170 -19 -31 -19 -31 7 -95 l26 -63 -23 -19 c-13 -10 -34 -19 -48 -19 -21 0
-29 10 -51 60 l-27 60 -47 0 -48 0 0 -48 c0 -54 -12 -72 -50 -72 -54 0 -55 4
-58 213 -4 238 -10 227 121 227 71 0 100 -4 133 -21z m327 15 c9 -3 46 -46 83
-95 37 -49 70 -89 73 -89 3 0 26 29 51 63 74 102 99 127 129 127 56 0 56 -2
56 -220 0 -168 -2 -202 -15 -210 -22 -14 -66 -12 -78 3 -6 7 -13 64 -14 127
l-3 113 -43 -61 c-71 -101 -91 -102 -164 -5 l-43 57 -5 -113 c-5 -120 -10
-131 -60 -131 -15 0 -31 5 -38 12 -17 17 -17 399 0 416 13 13 47 16 71 6z
m885 -6 c20 -20 15 -76 -7 -88 -11 -5 -63 -10 -115 -10 l-96 0 0 -30 0 -30 75
0 c71 0 76 -2 87 -25 8 -19 8 -31 0 -50 -11 -23 -16 -25 -87 -25 l-75 0 0 -30
0 -30 96 0 c52 0 104 -5 115 -10 22 -12 27 -68 7 -88 -17 -17 -299 -17 -316 0
-17 17 -17 399 0 416 17 17 299 17 316 0z"/>
<path d="M1788 964 c-80 -43 -73 -179 11 -213 70 -29 139 14 148 92 11 99 -77
166 -159 121z"/>
<path d="M2590 920 l0 -50 49 0 c53 0 81 17 81 50 0 33 -28 50 -81 50 l-49 0
0 -50z"/>
</g>
</svg>
